<svg xmlns="http://www.w3.org/2000/svg" width="1320" height="690" viewBox="0 0 1320 690" role="img" aria-labelledby="title desc">
<title id="title">MCP Calendar AWS Architecture</title><desc id="desc">README architecture diagram</desc>
<defs><marker id="arrow" markerWidth="10" markerHeight="10" refX="8" refY="3" orient="auto" markerUnits="strokeWidth"><path d="M0,0 L0,6 L9,3 z" fill="#111"/></marker></defs>
<style>.svc,.sub,.edge,.cloud-title,.awslogo{font-family:Arial,Helvetica,sans-serif;fill:#111}.cloud-title{font-size:20px}.awslogo{font-size:15px;font-weight:700;fill:#fff}.svc{font-size:14px;font-weight:600}.sub{font-size:11px;fill:#333}.edge{font-size:11px;fill:#333}.arrow{stroke:#111;stroke-width:1.4;fill:none;marker-end:url(#arrow)}</style>
<rect width="100%" height="100%" fill="#fff"/>

<rect x="300" y="40" width="1010" height="590" fill="#fff" stroke="#111" stroke-width="1.4"/><rect x="310" y="50" width="40" height="40" fill="#232f3e"/><text x="330" y="75" text-anchor="middle" class="awslogo">aws</text><text x="364" y="76" class="cloud-title">AWS Cloud</text>
<g id="browser"><rect x="40" y="265" width="128" height="124" rx="6" fill="#fff" stroke="#d0d7de" stroke-width="1.1"/><svg x="83" y="279" width="42" height="42" viewBox="0 0 24 24" preserveAspectRatio="xMidYMid meet" color="#111" aria-hidden="true"><rect x="3" y="5" width="18" height="14" rx="1.6" fill="none" stroke="currentColor" stroke-width="1.4"/><line x1="3" y1="8" x2="21" y2="8" stroke="currentColor" stroke-width="1.2"/><circle cx="6" cy="6.5" r=".7" fill="currentColor"/><line x1="7" y1="12" x2="17" y2="12" stroke="currentColor" stroke-width="1.2"/><line x1="7" y1="15" x2="14" y2="15" stroke="currentColor" stroke-width="1.2"/></svg><text x="104" y="347" text-anchor="middle" class="svc"><tspan x="104" dy="0">Reviewer</tspan></text><text x="104" y="363" text-anchor="middle" class="sub"><tspan x="104" dy="0">Browser</tspan></text></g>
<g id="internet"><rect x="180" y="265" width="128" height="124" rx="6" fill="#fff" stroke="#d0d7de" stroke-width="1.1"/><svg x="223" y="279" width="42" height="42" viewBox="0 0 24 24" preserveAspectRatio="xMidYMid meet" color="#111" aria-hidden="true"><path d="M7 18h10a4 4 0 0 0 .4-8 6 6 0 0 0-11.1-1.8A5 5 0 0 0 7 18Z" fill="none" stroke="currentColor" stroke-width="1.5" stroke-linejoin="round"/></svg><text x="244" y="347" text-anchor="middle" class="svc"><tspan x="244" dy="0">Internet</tspan></text></g>
<g id="next"><rect x="350" y="265" width="128" height="124" rx="6" fill="#fff" stroke="#d0d7de" stroke-width="1.1"/><svg x="393" y="279" width="42" height="42" viewBox="0 0 24 24" preserveAspectRatio="xMidYMid meet" color="#111" aria-hidden="true"><path d="M18.665 21.978C16.758 23.255 14.465 24 12 24 5.377 24 0 18.623 0 12S5.377 0 12 0s12 5.377 12 12c0 3.583-1.574 6.801-4.067 9.001L9.219 7.2H7.2v9.596h1.615V9.251l9.85 12.727Zm-3.332-8.533 1.6 2.061V7.2h-1.6v6.245Z"/></svg><text x="414" y="347" text-anchor="middle" class="svc"><tspan x="414" dy="0">Next.js</tspan></text><text x="414" y="363" text-anchor="middle" class="sub"><tspan x="414" dy="0">Frontend</tspan></text></g>
<g id="alb"><rect x="520" y="265" width="128" height="124" rx="6" fill="#fff" stroke="#d0d7de" stroke-width="1.1"/><svg x="563" y="279" width="42" height="42" viewBox="0 0 64 64" preserveAspectRatio="xMidYMid meet" color="#111" aria-hidden="true">
    
    <g id="Icon-Architecture/64/Arch_Elastic-Load-Balancing_64" stroke="none" stroke-width="1" fill="none" fill-rule="evenodd">
        <g id="Icon-Architecture-BG/64/Networking-Content-Delivery" fill="#8C4FFF">
            <rect id="Rectangle" x="0" y="0" width="80" height="80"></rect>
        </g>
        <path d="M30,53 C22.832,53 17,47.168 17,40 C17,32.832 22.832,27 30,27 C37.168,27 43,32.832 43,40 C43,47.168 37.168,53 30,53 M60,59 C60,61.206 58.206,63 56,63 C53.794,63 52,61.206 52,59 C52,56.794 53.794,55 56,55 C58.206,55 60,56.794 60,59 M56,17 C58.206,17 60,18.794 60,21 C60,23.206 58.206,25 56,25 C53.794,25 52,23.206 52,21 C52,18.794 53.794,17 56,17 M59,36 C61.206,36 63,37.794 63,40 C63,42.206 61.206,44 59,44 C56.794,44 55,42.206 55,40 C55,37.794 56.794,36 59,36 M44.949,41 L53.09,41 C53.568,43.833 56.033,46 59,46 C62.309,46 65,43.309 65,40 C65,36.691 62.309,34 59,34 C56.033,34 53.568,36.167 53.09,39 L44.949,39 C44.823,37.099 44.344,35.297 43.572,33.654 L52.446,25.823 C53.442,26.559 54.669,27 56,27 C59.309,27 62,24.309 62,21 C62,17.691 59.309,15 56,15 C52.691,15 50,17.691 50,21 C50,22.256 50.389,23.421 51.051,24.386 L42.581,31.859 C39.904,27.738 35.271,25 30,25 C21.729,25 15,31.729 15,40 C15,48.271 21.729,55 30,55 C35.271,55 39.904,52.262 42.581,48.141 L51.051,55.614 C50.389,56.579 50,57.744 50,59 C50,62.309 52.691,65 56,65 C59.309,65 62,62.309 62,59 C62,55.691 59.309,53 56,53 C54.669,53 53.442,53.441 52.446,54.177 L43.572,46.346 C44.344,44.703 44.823,42.901 44.949,41" id="Elastic-Load-Balancing_Icon_64_Squid" fill="#FFFFFF"></path>
    </g>
</svg><text x="584" y="347" text-anchor="middle" class="svc"><tspan x="584" dy="0">Elastic Load</tspan></text><text x="584" y="363" text-anchor="middle" class="sub"><tspan x="584" dy="0">Balancing</tspan></text></g>
<g id="ecs"><rect x="690" y="265" width="128" height="124" rx="6" fill="#fff" stroke="#d0d7de" stroke-width="1.1"/><svg x="733" y="279" width="42" height="42" viewBox="0 0 64 64" preserveAspectRatio="xMidYMid meet" color="#111" aria-hidden="true">
    
    <g id="Icon-Architecture/64/Arch_AWS-Fargate_64" stroke="none" stroke-width="1" fill="none" fill-rule="evenodd">
        <g id="Icon-Architecture-BG/64/Compute" fill="#ED7100">
            <rect id="Rectangle" x="0" y="0" width="80" height="80"></rect>
        </g>
        <path d="M52,56.523 L52,51.677 L55,50.477 L55,55.323 L52,56.523 Z M47,50.477 L50,51.677 L50,56.523 L47,55.323 L47,50.477 Z M41,63.523 L41,58.677 L44,57.477 L44,62.323 L41,63.523 Z M36,57.477 L39,58.677 L39,63.523 L36,62.323 L36,57.477 Z M30,56.523 L30,51.677 L33,50.477 L33,55.323 L30,56.523 Z M25,50.477 L28,51.677 L28,56.523 L25,55.323 L25,50.477 Z M29,48.077 L31.308,49 L29,49.923 L26.692,49 L29,48.077 Z M40,55.077 L42.308,56 L40,56.923 L37.692,56 L40,55.077 Z M51,48.077 L53.308,49 L51,49.923 L48.692,49 L51,48.077 Z M56.371,48.071 L51.371,46.071 C51.133,45.977 50.867,45.977 50.629,46.071 L45.629,48.071 C45.249,48.224 45,48.591 45,49 L45,54.923 L40.371,53.071 C40.133,52.977 39.867,52.977 39.629,53.071 L35,54.923 L35,49 C35,48.591 34.751,48.224 34.371,48.071 L29.371,46.071 C29.133,45.977 28.867,45.977 28.629,46.071 L23.629,48.071 C23.249,48.224 23,48.591 23,49 L23,56 C23,56.409 23.249,56.776 23.629,56.929 L28.629,58.929 C28.748,58.976 28.874,59 29,59 C29.126,59 29.252,58.976 29.371,58.929 L34,57.077 L34,63 C34,63.409 34.249,63.776 34.629,63.929 L39.629,65.929 C39.748,65.976 39.874,66 40,66 C40.126,66 40.252,65.976 40.371,65.929 L45.371,63.929 C45.751,63.776 46,63.409 46,63 L46,57.077 L50.629,58.929 C50.748,58.976 50.874,59 51,59 C51.126,59 51.252,58.976 51.371,58.929 L56.371,56.929 C56.751,56.776 57,56.409 57,56 L57,49 C57,48.591 56.751,48.224 56.371,48.071 L56.371,48.071 Z M65,35.938 C65,41.783 52.119,44.938 40,44.938 C27.881,44.938 15,41.783 15,35.938 C15,33.147 18.095,30.69 23.715,29.019 L24.285,30.936 C19.791,32.272 17,34.189 17,35.938 C17,39.249 26.445,42.938 40,42.938 C53.555,42.938 63,39.249 63,35.938 C63,34.189 60.209,32.272 55.715,30.936 L56.285,29.019 C61.905,30.69 65,33.147 65,35.938 L65,35.938 Z M40,17.071 L50.214,21 L40,24.929 L29.786,21 L40,17.071 Z M50.58,36.842 C48.694,37.686 45.528,38.669 41,38.801 L41,26.687 L52,22.457 L52,34.648 C52,35.599 51.444,36.46 50.58,36.842 L50.58,36.842 Z M28,34.648 L28,22.457 L39,26.687 L39,38.801 C34.472,38.669 31.306,37.686 29.416,36.84 C28.556,36.46 28,35.599 28,34.648 L28,34.648 Z M28.604,38.667 C30.805,39.652 34.569,40.827 40,40.827 C45.431,40.827 49.195,39.652 51.393,38.669 C52.977,37.968 54,36.39 54,34.648 L54,21 C54,20.586 53.745,20.215 53.359,20.066 L40.359,15.066 C40.127,14.978 39.873,14.978 39.641,15.066 L26.641,20.066 C26.255,20.215 26,20.586 26,21 L26,34.648 C26,36.39 27.023,37.968 28.604,38.667 L28.604,38.667 Z" id="AWS-Fargate_Icon_64_Squid" fill="#FFFFFF"></path>
    </g>
</svg><text x="754" y="347" text-anchor="middle" class="svc"><tspan x="754" dy="0">ECS Fargate</tspan></text><text x="754" y="363" text-anchor="middle" class="sub"><tspan x="754" dy="0">Spring Boot</tspan></text></g>
<g id="rds"><rect x="850" y="105" width="128" height="124" rx="6" fill="#fff" stroke="#d0d7de" stroke-width="1.1"/><svg x="893" y="119" width="42" height="42" viewBox="0 0 64 64" preserveAspectRatio="xMidYMid meet" color="#111" aria-hidden="true">
    
    <g id="Icon-Architecture/64/Arch_Amazon-RDS_64" stroke="none" stroke-width="1" fill="none" fill-rule="evenodd">
        <g id="Icon-Architecture-BG/64/Database" fill="#C925D1">
            <rect id="Rectangle" x="0" y="0" width="80" height="80"></rect>
        </g>
        <path d="M15.414,14 L24.707,23.293 L23.293,24.707 L14,15.414 L14,23 L12,23 L12,13 C12,12.448 12.447,12 13,12 L23,12 L23,14 L15.414,14 Z M68,13 L68,23 L66,23 L66,15.414 L56.707,24.707 L55.293,23.293 L64.586,14 L57,14 L57,12 L67,12 C67.553,12 68,12.448 68,13 L68,13 Z M66,57 L68,57 L68,67 C68,67.552 67.553,68 67,68 L57,68 L57,66 L64.586,66 L55.293,56.707 L56.707,55.293 L66,64.586 L66,57 Z M65.5,39.213 C65.5,35.894 61.668,32.615 55.25,30.442 L55.891,28.548 C63.268,31.045 67.5,34.932 67.5,39.213 C67.5,43.495 63.268,47.383 55.89,49.879 L55.249,47.984 C61.668,45.812 65.5,42.534 65.5,39.213 L65.5,39.213 Z M14.556,39.213 C14.556,42.393 18.143,45.585 24.152,47.753 L23.473,49.634 C16.535,47.131 12.556,43.333 12.556,39.213 C12.556,35.094 16.535,31.296 23.473,28.792 L24.152,30.673 C18.143,32.842 14.556,36.034 14.556,39.213 L14.556,39.213 Z M24.707,56.707 L15.414,66 L23,66 L23,68 L13,68 C12.447,68 12,67.552 12,67 L12,57 L14,57 L14,64.586 L23.293,55.293 L24.707,56.707 Z M40,31.286 C32.854,31.286 29,29.44 29,28.686 C29,27.931 32.854,26.086 40,26.086 C47.145,26.086 51,27.931 51,28.686 C51,29.44 47.145,31.286 40,31.286 L40,31.286 Z M40.029,39.031 C33.187,39.031 29,37.162 29,36.145 L29,31.284 C31.463,32.643 35.832,33.286 40,33.286 C44.168,33.286 48.537,32.643 51,31.284 L51,36.145 C51,37.163 46.835,39.031 40.029,39.031 L40.029,39.031 Z M40.029,46.667 C33.187,46.667 29,44.798 29,43.781 L29,38.862 C31.431,40.291 35.742,41.031 40.029,41.031 C44.292,41.031 48.578,40.292 51,38.867 L51,43.781 C51,44.799 46.835,46.667 40.029,46.667 L40.029,46.667 Z M40,53.518 C32.883,53.518 29,51.605 29,50.622 L29,46.498 C31.431,47.927 35.742,48.667 40.029,48.667 C44.292,48.667 48.578,47.929 51,46.503 L51,50.622 C51,51.605 47.117,53.518 40,53.518 L40,53.518 Z M40,24.086 C33.739,24.086 27,25.525 27,28.686 L27,50.622 C27,53.836 33.54,55.518 40,55.518 C46.46,55.518 53,53.836 53,50.622 L53,28.686 C53,25.525 46.261,24.086 40,24.086 L40,24.086 Z" id="Amazon-RDS_Icon_64_Squid" fill="#FFFFFF"></path>
    </g>
</svg><text x="914" y="187" text-anchor="middle" class="svc"><tspan x="914" dy="0">Amazon RDS</tspan></text><text x="914" y="203" text-anchor="middle" class="sub"><tspan x="914" dy="0">PostgreSQL</tspan></text></g>
<g id="redis"><rect x="850" y="445" width="128" height="124" rx="6" fill="#fff" stroke="#d0d7de" stroke-width="1.1"/><svg x="893" y="459" width="42" height="42" viewBox="0 0 64 64" preserveAspectRatio="xMidYMid meet" color="#111" aria-hidden="true">
    
    <g id="Icon-Architecture/64/Arch_Amazon-ElastiCache_64" stroke="none" stroke-width="1" fill="none" fill-rule="evenodd">
        <g id="Icon-Architecture-BG/64/Database" fill="#C925D1">
            <rect id="Rectangle" x="0" y="0" width="80" height="80"></rect>
        </g>
        <path d="M51,61.5554864 L51,55.7029342 C48.466,57.3400887 43.904,58.1131616 39.556,58.1131616 C34.816,58.1131616 31.121,57.2860836 29,55.8679498 L29,61.5554864 C29,63.2486461 32.948,64.9998113 39.556,64.9998113 C46.3,64.9998113 51,63.1846401 51,61.5554864 L51,61.5554864 Z M39.556,49.2203227 C34.816,49.2203227 31.121,48.3942447 29,46.976111 L29,52.6866497 C29.031,54.3738088 32.973,56.1129729 39.556,56.1129729 C46.279,56.1129729 50.969,54.3088027 51,52.6826493 L51,46.8100953 C48.466,48.4482498 43.904,49.2203227 39.556,49.2203227 L39.556,49.2203227 Z M51,43.7908105 L51,37.0291726 C48.466,38.666327 43.904,39.4393999 39.556,39.4393999 C34.816,39.4393999 31.121,38.613322 29,37.1951882 L29,43.7948108 C29.031,45.48197 32.973,47.220134 39.556,47.220134 C46.279,47.220134 50.969,45.4159638 51,43.7908105 L51,43.7908105 Z M28.997,33.9928861 C28.997,33.9958864 28.998,33.9988867 28.998,34.001887 L29,34.001887 L29,34.012888 C29.031,35.7000472 32.973,37.4392112 39.556,37.4392112 C46.898,37.4392112 50.969,35.4170205 51,34.0098877 L51,34.001887 L51.002,34.001887 C51.002,33.9988867 51.003,33.9958864 51.003,33.9928861 C51.003,32.5847533 46.927,30.546561 39.556,30.546561 C32.946,30.546561 28.997,32.2987263 28.997,33.9928861 L28.997,33.9928861 Z M53,34.0178885 L53,43.7738088 L53.003,43.7738088 C53.003,43.7828097 53,43.7898104 53,43.7988112 L53,52.6666478 L53.003,52.6666478 C53.003,52.6756486 53,52.6826493 53,52.6916502 L53,61.5554864 C53,65.2968393 46.031,67 39.556,67 C31.929,67 27,64.8627984 27,61.5554864 L27,52.6976507 C27,52.6866497 26.997,52.6776488 26.997,52.6666478 L27,52.6666478 L27,43.8048118 C27,43.7948108 26.997,43.7848099 26.997,43.7738088 L27,43.7738088 L27,34.023889 C27,34.012888 26.997,34.0038872 26.997,33.9928861 C26.997,30.684574 31.927,28.5463723 39.556,28.5463723 C46.032,28.5463723 53.003,30.2505331 53.003,33.9928861 C53.003,34.001887 53,34.0088876 53,34.0178885 L53,34.0178885 Z M67,21.1206718 C67.553,21.1206718 68,20.6726295 68,20.1205774 L68,15.0000943 C68,14.4470422 67.553,14 67,14 L13,14 C12.447,14 12,14.4470422 12,15.0000943 L12,20.1205774 C12,20.6726295 12.447,21.1206718 13,21.1206718 C14.221,21.1206718 15.214,22.1077649 15.214,23.3208793 C15.214,24.5339938 14.221,25.5210869 13,25.5210869 C12.447,25.5210869 12,25.9691292 12,26.5211812 L12,47.0031135 C12,47.5551656 12.447,48.0032078 13,48.0032078 L23,48.0032078 L23,46.0030192 L18,46.0030192 L18,43.0027361 L23,43.0027361 L23,41.0025474 L17,41.0025474 C16.447,41.0025474 16,41.4495896 16,42.0026418 L16,46.0030192 L14,46.0030192 L14,27.4012643 C15.843,26.9522219 17.214,25.2930654 17.214,23.3208793 C17.214,21.3476932 15.843,19.6885367 14,19.2394943 L14,16.0001887 L66,16.0001887 L66,19.2394943 C64.157,19.6885367 62.786,21.3476932 62.786,23.3208793 C62.786,25.2930654 64.157,26.9522219 66,27.4012643 L66,46.0030192 L64,46.0030192 L64,42.0026418 C64,41.4495896 63.553,41.0025474 63,41.0025474 L57,41.0025474 L57,43.0027361 L62,43.0027361 L62,46.0030192 L57,46.0030192 L57,48.0032078 L67,48.0032078 C67.553,48.0032078 68,47.5551656 68,47.0031135 L68,26.5211812 C68,25.9691292 67.553,25.5210869 67,25.5210869 C65.779,25.5210869 64.786,24.5339938 64.786,23.3208793 C64.786,22.1077649 65.779,21.1206718 67,21.1206718 L67,21.1206718 Z M28,28.0013209 L28,20.0005661 C28,19.4475139 27.553,19.0004717 27,19.0004717 L21,19.0004717 C20.447,19.0004717 20,19.4475139 20,20.0005661 L20,37.00217 C20,37.5542221 20.447,38.0022644 21,38.0022644 L24,38.0022644 L24,36.0020757 L22,36.0020757 L22,21.0006604 L26,21.0006604 L26,28.0013209 L28,28.0013209 Z M58,36.0020757 L57,36.0020757 L57,38.0022644 L59,38.0022644 C59.553,38.0022644 60,37.5542221 60,37.00217 L60,20.0005661 C60,19.4475139 59.553,19.0004717 59,19.0004717 L53,19.0004717 C52.447,19.0004717 52,19.4475139 52,20.0005661 L52,28.0013209 L54,28.0013209 L54,21.0006604 L58,21.0006604 L58,36.0020757 Z M50,27.0012265 L50,20.0005661 C50,19.4475139 49.553,19.0004717 49,19.0004717 L42,19.0004717 C41.447,19.0004717 41,19.4475139 41,20.0005661 L41,26.0011322 L43,26.0011322 L43,21.0006604 L48,21.0006604 L48,27.0012265 L50,27.0012265 Z M37,26.0011322 L37,21.0006604 L32,21.0006604 L32,27.0012265 L30,27.0012265 L30,20.0005661 C30,19.4475139 30.447,19.0004717 31,19.0004717 L38,19.0004717 C38.553,19.0004717 39,19.4475139 39,20.0005661 L39,26.0011322 L37,26.0011322 Z" id="Amazon-ElastiCache_Icon_64_Squid" fill="#FFFFFF"></path>
    </g>
</svg><text x="914" y="527" text-anchor="middle" class="svc"><tspan x="914" dy="0">ElastiCache</tspan></text><text x="914" y="543" text-anchor="middle" class="sub"><tspan x="914" dy="0">Redis</tspan></text></g>
<g id="cw"><rect x="1035" y="105" width="128" height="124" rx="6" fill="#fff" stroke="#d0d7de" stroke-width="1.1"/><svg x="1078" y="119" width="42" height="42" viewBox="0 0 64 64" preserveAspectRatio="xMidYMid meet" color="#111" aria-hidden="true">
    
    <g id="Icon-Architecture/64/Arch_Amazon-CloudWatch_64" stroke="none" stroke-width="1" fill="none" fill-rule="evenodd">
        <g id="Icon-Architecture-BG/64/Management-Governance" fill="#E7157B">
            <rect id="Rectangle" x="0" y="0" width="80" height="80"></rect>
        </g>
        <path d="M55.0592315,46.7773707 C55.0592315,42.8680281 51.8575588,39.6876305 47.9220646,39.6876305 C43.9865705,39.6876305 40.785903,42.8680281 40.785903,46.7773707 C40.785903,50.6867133 43.9865705,53.8671108 47.9220646,53.8671108 C51.8575588,53.8671108 55.0592315,50.6867133 55.0592315,46.7773707 M57.0697011,46.7773707 C57.0697011,51.7881194 52.9663327,55.8642207 47.9220646,55.8642207 C42.8788018,55.8642207 38.7754334,51.7881194 38.7754334,46.7773707 C38.7754334,41.7666219 42.8788018,37.6905206 47.9220646,37.6905206 C52.9663327,37.6905206 57.0697011,41.7666219 57.0697011,46.7773707 M65.5096522,60.4735504 L58.5011554,54.2026253 C57.9352082,54.9944794 57.2808004,55.7174332 56.5540156,56.3634982 L63.5524601,62.6334248 C64.1495696,63.1686502 65.0784065,63.1187225 65.6182176,62.5255808 C66.155013,61.9324392 66.1067617,61.010773 65.5096522,60.4735504 M47.9220646,57.6616197 C53.9645309,57.6616197 58.8801289,52.7786859 58.8801289,46.7773707 C58.8801289,40.7750569 53.9645309,35.8931217 47.9220646,35.8931217 C41.8806036,35.8931217 36.9650056,40.7750569 36.9650056,46.7773707 C36.9650056,52.7786859 41.8806036,57.6616197 47.9220646,57.6616197 M67.1119965,63.8626459 C66.4264264,64.6165549 65.47849,65 64.5285431,65 C63.7002296,65 62.8699057,64.708422 62.207456,64.1172774 L54.9305615,57.5987107 C52.9070239,58.8968321 50.505518,59.6587296 47.9220646,59.6587296 C40.7718297,59.6587296 34.9545361,53.8800921 34.9545361,46.7773707 C34.9545361,39.6746493 40.7718297,33.8960118 47.9220646,33.8960118 C55.0733048,33.8960118 60.8905985,39.6746493 60.8905985,46.7773707 C60.8905985,48.8154213 60.3990387,50.7366411 59.5465996,52.4511599 L66.8556616,58.9906963 C68.2750531,60.265851 68.3896499,62.4496907 67.1119965,63.8626459 M21.2803274,29.392529 C21.2803274,29.9117776 21.3124949,30.429029 21.3738143,30.9293051 C21.4089975,31.2138932 21.3205368,31.4984814 21.1295422,31.7131707 C20.9777518,31.8839236 20.7736891,31.9967603 20.550527,32.0347054 C18.0786547,32.6687878 14.0104695,34.5880104 14.0104695,40.3456782 C14.0104695,44.6933865 16.4240382,47.0929141 18.4495863,48.3411077 C19.1411878,48.7744806 19.9594489,49.0051468 20.8229456,49.0141338 L32.9450717,49.0251179 L32.9430613,51.0222278 L20.811888,51.0112437 C19.5664021,50.9982625 18.384246,50.6607509 17.3840374,50.0346569 C15.3765836,48.7974474 12,45.8896553 12,40.3456782 C12,33.66235 16.5999543,31.191925 19.3000149,30.319188 C19.2799102,30.0116331 19.2698579,29.702081 19.2698579,29.392529 C19.2698579,23.9324305 22.9982737,18.2696254 27.9420183,16.2215892 C33.7241287,13.8150717 39.8500294,15.0083449 44.3263399,19.4109737 C45.7135638,20.7749998 46.8545053,22.4316024 47.7300648,24.3478294 C48.9061895,23.3802296 50.355738,22.8460027 51.8836949,22.8460027 C54.8863312,22.8460027 58.2659305,25.1097268 58.8680661,30.0605622 C61.6797078,30.7046302 67.6206453,32.9553731 67.6206453,40.422567 C67.6206453,43.4042521 66.6797455,45.8666886 64.8230769,47.7419748 L63.3896121,46.3410022 C64.8632863,44.8531553 65.6101757,42.8620367 65.6101757,40.422567 C65.6101757,33.891019 60.1055101,32.2663701 57.737177,31.8719409 C57.4677741,31.827006 57.2295334,31.6752256 57.0757325,31.4515493 C56.9259525,31.2358614 56.8686541,30.9712444 56.9138897,30.7146157 C56.5851779,26.6604826 54.1605516,24.8431126 51.8836949,24.8431126 C50.4472144,24.8431126 49.1001998,25.5381069 48.1874466,26.7503526 C47.9652897,27.0439277 47.6044105,27.193711 47.2344841,27.139789 C46.8695838,27.085867 46.5629872,26.8362283 46.4373329,26.4917268 C45.6140456,24.2260057 44.4278686,22.3207628 42.9119745,20.8309188 C39.0327735,17.0154404 33.7281496,15.9809374 28.7170543,18.0649216 C24.5463352,19.7924217 21.2803274,24.7672224 21.2803274,29.392529" id="Amazon-CloudWatch_Icon_64_Squid" fill="#FFFFFF"></path>
    </g>
</svg><text x="1099" y="187" text-anchor="middle" class="svc"><tspan x="1099" dy="0">CloudWatch</tspan></text><text x="1099" y="203" text-anchor="middle" class="sub"><tspan x="1099" dy="0">Logs/Metrics</tspan></text></g>
<g id="tools"><rect x="1035" y="265" width="128" height="124" rx="6" fill="#fff" stroke="#d0d7de" stroke-width="1.1"/><svg x="1078" y="279" width="42" height="42" viewBox="0 0 24 24" preserveAspectRatio="xMidYMid meet" color="#111" aria-hidden="true"><path d="M6 18 15.5 8.5" stroke="currentColor" stroke-width="2" stroke-linecap="round"/><path d="M14 5.5 18.5 10" stroke="currentColor" stroke-width="2" stroke-linecap="round"/><path d="M5.5 6.5 17.5 18.5" stroke="currentColor" stroke-width="1.8" stroke-linecap="round"/></svg><text x="1099" y="347" text-anchor="middle" class="svc"><tspan x="1099" dy="0">MCP Tools</tspan></text><text x="1099" y="363" text-anchor="middle" class="sub"><tspan x="1099" dy="0">Calendar/Ledger</tspan></text></g>
<g id="gemini"><rect x="1035" y="445" width="128" height="124" rx="6" fill="#fff" stroke="#d0d7de" stroke-width="1.1"/><svg x="1078" y="459" width="42" height="42" viewBox="0 0 24 24" preserveAspectRatio="xMidYMid meet" color="#111" aria-hidden="true"><path d="M12.48 10.92v3.28h7.84c-.24 1.84-.853 3.187-1.787 4.133-1.147 1.147-2.933 2.4-6.053 2.4-4.827 0-8.6-3.893-8.6-8.72s3.773-8.72 8.6-8.72c2.6 0 4.507 1.027 5.907 2.347l2.307-2.307C18.747 1.44 16.133 0 12.48 0 5.867 0 .307 5.387.307 12s5.56 12 12.173 12c3.573 0 6.267-1.173 8.373-3.36 2.16-2.16 2.84-5.213 2.84-7.667 0-.76-.053-1.467-.173-2.053H12.48z"/></svg><text x="1099" y="527" text-anchor="middle" class="svc"><tspan x="1099" dy="0">Gemini</tspan></text><text x="1099" y="543" text-anchor="middle" class="sub"><tspan x="1099" dy="0">Function Calling</tspan></text></g>
<g id="k6"><rect x="350" y="445" width="128" height="124" rx="6" fill="#fff" stroke="#d0d7de" stroke-width="1.1"/><svg x="393" y="459" width="42" height="42" viewBox="0 0 24 24" preserveAspectRatio="xMidYMid meet" color="#111" aria-hidden="true"><path d="M24 23.646H0L7.99 6.603l4.813 3.538L19.08.354Zm-8.8-3.681h.052a2.292 2.292 0 0 0 1.593-.64 2.088 2.088 0 0 0 .685-1.576 1.912 1.912 0 0 0-.66-1.511 2.008 2.008 0 0 0-1.37-.59h-.04a.716.716 0 0 0-.199.027l1.267-1.883-1.01-.705-.477.705-1.22 1.864c-.21.31-.386.582-.495.77-.112.2-.21.41-.29.625a1.942 1.942 0 0 0-.138.719 2.086 2.086 0 0 0 .676 1.558c.422.411.989.641 1.578.64Zm-5.365-2.027 1.398 1.978h1.496l-1.645-2.295 1.46-2.029-.97-.671-.427.565-1.314 1.853v-3.725l-1.31-1.068v7.37h1.31v-1.98Zm5.367.792a.963.963 0 1 1 0-1.927h.009a.941.941 0 0 1 .679.29.897.897 0 0 1 .29.668.978.978 0 0 1-.977.967Z"/></svg><text x="414" y="527" text-anchor="middle" class="svc"><tspan x="414" dy="0">k6</tspan></text><text x="414" y="543" text-anchor="middle" class="sub"><tspan x="414" dy="0">Load Test</tspan></text></g>
<path d="M 168 327 L 180 327" class="arrow"/><path d="M 308 327 L 350 327" class="arrow"/><path d="M 478 327 L 520 327" class="arrow"/><path d="M 648 327 L 690 327" class="arrow"/>
<path d="M 818 303 L 835 303 L 835 167 L 850 167" class="arrow"/><path d="M 818 351 L 835 351 L 835 507 L 850 507" class="arrow"/><path d="M 754 265 L 754 84 L 1099 84 L 1099 105" class="arrow"/><path d="M 818 327 L 1035 327" class="arrow"/><path d="M 1099 389 L 1099 445" class="arrow"/><path d="M 478 507 L 490 507 L 490 389 L 520 351" class="arrow"/>

</svg>
